<mxfile host="app.diagrams.net" modified="2023-11-19T16:29:03.562Z" agent="Mozilla/5.0 (Windows NT 10.0; Win64; x64) AppleWebKit/537.36 (KHTML, like Gecko) Chrome/119.0.0.0 Safari/537.36" version="22.1.3" etag="QYTw688UNh20KHSebqgt" type="github">
  <diagram name="Page-1" id="FApHklBlUo-kACPFq9qZ">
    <mxGraphModel>
      <root>
        <mxCell id="0" />
        <mxCell id="1" parent="0" />
      </root>
    </mxGraphModel>
  </diagram>
</mxfile>
